<?xml version="1.0" encoding="UTF-8" standalone="no"?>
<!-- Created with Inkscape (http://www.inkscape.org/) -->

<svg
   xmlns:dc="http://purl.org/dc/elements/1.1/"
   xmlns:cc="http://creativecommons.org/ns#"
   xmlns:rdf="http://www.w3.org/1999/02/22-rdf-syntax-ns#"
   xmlns:svg="http://www.w3.org/2000/svg"
   xmlns="http://www.w3.org/2000/svg"
   xmlns:sodipodi="http://sodipodi.sourceforge.net/DTD/sodipodi-0.dtd"
   xmlns:inkscape="http://www.inkscape.org/namespaces/inkscape"
   version="1.1"
   width="1877.0629"
   height="202.05415"
   id="logo"
   inkscape:version="0.48.4 r9939"
   sodipodi:docname="logo.svg">
  <sodipodi:namedview
     pagecolor="#ffffff"
     bordercolor="#666666"
     borderopacity="1"
     objecttolerance="10"
     gridtolerance="10"
     guidetolerance="10"
     inkscape:pageopacity="0"
     inkscape:pageshadow="2"
     inkscape:window-width="1920"
     inkscape:window-height="1041"
     id="namedview6"
     showgrid="false"
     fit-margin-top="0"
     fit-margin-left="0"
     fit-margin-right="0"
     fit-margin-bottom="0"
     inkscape:zoom="0.58336309"
     inkscape:cx="864.39288"
     inkscape:cy="-98.527387"
     inkscape:window-x="0"
     inkscape:window-y="0"
     inkscape:window-maximized="1"
     inkscape:current-layer="logo" />
  <metadata
     id="metadata3026">
    <rdf:RDF>
      <cc:Work
         rdf:about="">
        <dc:format>image/svg+xml</dc:format>
        <dc:type
           rdf:resource="http://purl.org/dc/dcmitype/StillImage" />
        <dc:title />
      </cc:Work>
    </rdf:RDF>
  </metadata>
  <defs
     id="defs3024" />
  <path
     d="m 245.90179,187.52708 0,-14.52708 51.07692,0 51.07693,0 2.92307,-2.92308 2.92308,-2.92307 0,-38.65385 0,-54.65385 -2.92308,-2.92307 L 348.05564,68 l -23.65385,0 -23.65385,0 -2.92307,2.92308 -2.92308,2.92307 0,19.15385 0,35.15385 2.92308,2.92307 2.92307,2.92308 21.57693,0 21.57692,0 0,14.545 0,14.545 -37.75,-0.295 -37.75,-0.295 -5.6816,-2.79009 c -6.43691,-3.16099 -11.13432,-8.00593 -14.21274,-14.6591 -2,-4.32246 -2.10566,-22.13143 -2.10566,-52.05081 0,-29.91938 0.10566,-31.72835 2.10566,-36.05081 3.07842,-6.65317 8.73008,-10.03675 14.21274,-14.65911 l 5.6816,-2.79008 56,0 c 54.82916,0 56.09515,0.044 60.55081,2.10565 6.38383,2.9538 10.34875,8.72521 14.76341,13.80433 l 2.68578,5.09002 0,67.5 0,51.5 -2.79009,5.6816 c -3.16099,6.43691 -8.00593,11.13432 -14.6591,14.21274 -4.4641,2.06554 -5.83223,2.11094 -71.80081,2.38274 l -67.25,0.27708 z m 590,-4.98661 0,-19.45953 -42.75,-0.29047 c -41.03108,-0.27879 -42.93298,-0.37514 -47.30081,-2.39613 -6.38383,-2.9538 -11.62291,-7.85252 -14.76341,-13.80432 L 728.40179,141.5 728.10254,82.25 727.80329,39 l 24.54925,0 24.54925,0 0,36.57692 0,52.57693 2.92308,2.92307 2.92307,2.92308 26.57693,0 26.57692,0 0,-55.5 0,-39.5 24.5,0 24.5,0 0,89.5 0,73.5 -24.5,0 -24.5,0 z M 20.234243,161.14893 C 10.208436,157.68427 3.0913577,149.77464 0.86451167,139.62221 0.13112067,136.2786 -0.14427633,108.60385 0.07139367,90 0.37832267,63.52414 0.55133667,61.17679 2.5074437,56.94919 5.5858677,50.29602 10.28327,45.45107 16.720185,42.29008 L 22.401788,39.5 l 56.000003,0 c 54.829159,0 56.095149,0.044 60.550809,2.10565 6.38383,2.9538 10.34875,8.72521 14.76341,13.80433 l 2.68578,5.09002 0.29925,59.25 0.29925,43.25 -24.54925,0 -24.54925,0 0,-36.57692 0,-52.57693 -2.92308,-2.92307 L 102.05564,68 l -23.653849,0 -23.653849,0 -2.923077,2.92308 -2.923077,2.92307 0,19.15385 0,35.15385 2.923077,2.92307 2.923077,2.92308 21.576919,0 21.57693,0 0,14.5 0,14.5 -36.25,-0.0326 C 29.501515,162.9384 24.81736,162.73279 20.234243,161.14898 z M 176.90179,73.5 l 0,-73.5 24.5,0 24.5,0 0,73.5 0,89.5 -24.5,0 -24.5,0 z m 267.22358,88.04754 C 436.00434,158.97979 430.05822,154.02738 426.05854,146.5 l -2.65675,-5 0,-48 c 0,-30.42774 0.10346,-32.2236 2.10566,-36.55081 3.07842,-6.65317 8.73008,-10.03675 14.21274,-14.65911 l 5.6816,-2.79008 56,0 c 54.82916,0 56.09515,0.044 60.55081,2.10565 6.38383,2.9538 11.62291,7.85253 14.76341,13.80433 l 2.68578,5.09002 0,32 0,48 -2.79009,5.6816 c -3.16099,6.43691 -8.00593,11.13432 -14.6591,14.21274 -4.43271,2.05101 -5.96519,2.11085 -59.05081,2.3055 -43.45777,0.15935 -55.36644,-0.0741 -58.77642,-1.1523 z m 83.85334,-30.47062 2.92308,-2.92307 0,-35.15385 0,-19.15385 -2.92308,-2.92307 L 525.05564,68 l -23.65385,0 -23.65385,0 -2.92307,2.92308 -2.92308,2.92307 0,19.15385 0,35.15385 2.92308,2.92307 2.92307,2.92308 23.65385,0 23.65385,0 z M 600.11132,120.25 c 0.27879,-41.03108 0.37514,-58.93298 2.39613,-63.30081 3.07842,-6.65317 8.73008,-10.03675 14.21274,-14.65911 l 5.6816,-2.79008 42.75,-0.29047 42.75,-0.29047 0,14.54047 0,14.54047 -26.57692,0 -26.57693,0 -2.92307,2.92308 -2.92308,2.92307 0,52.57693 0,36.57692 -24.54047,0 -24.54047,0 z m 326.01405,41.28081 c -8.09409,-2.52756 -14.06092,-7.4917 -18.06683,-15.03081 l -2.65675,-5 -0.28562,-78.75 -0.28563,-62.75 24.53563,0 24.53562,0 0,19.5 0,19.5 29.49993,0 29.49998,0 0,14.5 0,14.5 -29.49998,0 -29.49993,0 0,22.07692 0,38.07693 2.92308,2.92307 2.92307,2.92308 26.57688,0 26.57688,0 0,14.5 0,14.5 -41.24996,-0.0669 c -31.44966,-0.051 -42.26595,-0.38416 -45.52637,-1.40229 z M 1032.9017,73.5 l 0,-73.5 24.5,0 24.5,0 0,19.45953 0,19.45953 42.75,0.29047 c 41.0311,0.27879 42.933,0.37513 47.3008,2.39612 6.6532,3.07843 10.3277,8.49742 14.6591,14.21275 l 2.7901,5.6816 0.2905,58.75 0.2904,42.75 -24.5404,0 -24.5405,0 0,-36.57692 0,-52.57693 -2.9231,-2.92307 -2.9231,-2.92308 -26.5769,0 -26.5769,0 0,55.5 0,39.5 -24.5,0 -24.5,0 z m 177.2095,46.75 c 0.2788,-41.03108 0.3752,-58.93298 2.3962,-63.30081 3.0784,-6.65317 8.73,-10.03676 14.2127,-14.65911 l 5.6816,-2.79008 50,0 50,0 5,2.5 5,2.5 4.9978,-2.5 4.9977,-2.5 50.0023,0 50.0022,0 5.6816,2.79008 c 6.4369,3.16099 11.1343,8.00594 14.2127,14.65911 2.021,4.36783 2.1174,22.26973 2.3962,63.30081 l 0.2904,42.75 -24.5404,0 -24.5405,0 0,-36.57692 0,-52.57693 -2.9231,-2.92307 -2.9231,-2.92308 -23.6538,0 -23.6538,0 -2.9231,2.92308 -2.9231,2.92307 0,52.57693 0,36.57692 -24.5,0 -24.5,0 0,-36.57692 0,-52.57693 -2.9231,-2.92307 -2.9231,-2.92308 -23.6538,0 -23.6538,0 -2.9231,2.92308 -2.9231,2.92307 0,52.57693 0,36.57692 -24.5405,0 -24.5404,0 z m 283.7905,28.25 0,-14.5 14.5,0 14.5,0 0,14.5 0,14.5 -14.5,0 -14.5,0 z m 69.3325,12.66587 c -10.0459,-3.50451 -17.1449,-11.40029 -19.3698,-21.54366 -0.7334,-3.34361 -1.0088,-31.01836 -0.7931,-49.62221 0.3069,-26.47586 0.4799,-28.82321 2.4361,-33.05081 3.0784,-6.65317 8.73,-10.03676 14.2127,-14.65911 l 5.6816,-2.79008 37.75,-0.295 37.75,-0.29501 0,14.54501 0,14.545 -21.5769,0 -21.5769,0 -2.9231,2.92308 -2.9231,2.92307 0,19.15385 0,35.15385 2.9231,2.92307 2.9231,2.92308 23.6538,0 23.6538,0 2.9231,-2.92308 2.9231,-2.92307 0,-72.07693 0,-56.07692 24.529,0 24.5291,0 -0.2791,62.25 -0.279,78.25 -2.7901,5.6816 c -3.161,6.43691 -8.0059,11.13432 -14.6591,14.21274 -4.4295,2.04955 -6.0032,2.1119 -59.0508,2.33995 -50.2964,0.21622 -54.8986,0.0953 -59.6675,-1.56842 z m 177.8911,0.36494 c -8.0941,-2.52756 -14.0609,-7.4917 -18.0668,-15.03081 l -2.6568,-5 0,-48 c 0,-30.42774 0.1035,-32.2236 2.1057,-36.55081 3.0784,-6.65317 7.7758,-11.49812 14.2127,-14.65911 l 5.6816,-2.79008 56,0 c 54.8292,0 56.0951,0.044 60.5508,2.10565 6.3872,2.95537 11.6251,7.85486 14.7577,13.80433 2.649,5.03089 2.8195,5.35854 3.0164,28.34002 l 0.3362,39.25 -24.5805,0 -24.5806,0 0,-32.57692 0,-16.57693 -2.9231,-2.92307 -2.9231,-2.92308 -23.6538,0 -23.6538,0 -2.9231,2.92308 -2.9231,2.92307 0,19.15385 0,35.15385 2.9231,2.92307 2.9231,2.92308 51.0769,0 51.0769,0 0,14.5 0,14.5 -65.75,-0.0669 c -51.8911,-0.0528 -66.6514,-0.34837 -70.0264,-1.40229 z"
     id="path3033"
     style="fill:#00aadd;fill-opacity:1;stroke:none"
     inkscape:connector-curvature="0" />
</svg>
